HIERARCHY
ROOT Hips
{
	OFFSET 0.000000  0.463670  0.080341
	CHANNELS 6 Xposition Yposition Zposition Zrotation Yrotation Xrotation 
	JOINT LHipJoint
	{
		OFFSET 0 0 0
		CHANNELS 3 Zrotation Yrotation Xrotation
		JOINT LeftUpLeg
		{
			OFFSET 0.949434 -0.248378 0.086503
			CHANNELS 3 Zrotation Yrotation Xrotation
			JOINT LeftLeg
			{
				OFFSET -0.076513 -3.879421 -0.177038
				CHANNELS 3 Zrotation Yrotation Xrotation
				JOINT LeftFoot
				{
					OFFSET -0.188964 -3.680973 -0.122632
					CHANNELS 3 Zrotation Yrotation Xrotation
					JOINT LeftToeBase
					{
						OFFSET 0.055451 -0.524480 1.120382
						CHANNELS 3 Zrotation Yrotation Xrotation
						End Site
						{
							OFFSET 0.007944 -0.006006 0.139660
						}
					}
				}
			}
		}
	}
	JOINT RHipJoint
	{
		OFFSET 0 0 0
		CHANNELS 3 Zrotation Yrotation Xrotation
		JOINT RightUpLeg
		{
			OFFSET -0.949434 -0.248378 0.086503
			CHANNELS 3 Zrotation Yrotation Xrotation
			JOINT RightLeg
			{
				OFFSET 0.076513 -3.879421 -0.177038
				CHANNELS 3 Zrotation Yrotation Xrotation
				JOINT RightFoot
				{
					OFFSET 0.188964 -3.680973 -0.122632
					CHANNELS 3 Zrotation Yrotation Xrotation
					JOINT RightToeBase
					{
						OFFSET -0.055451 -0.524480 1.120382
						CHANNELS 3 Zrotation Yrotation Xrotation
						End Site
						{
							OFFSET -0.007944 -0.006006 0.139660
						}
					}
				}
			}
		}
	}
	JOINT LowerBack
	{
		OFFSET 0 0 0
		CHANNELS 3 Zrotation Yrotation Xrotation
		JOINT Spine
		{
			OFFSET 0.000000 0.677144 0.028277
			CHANNELS 3 Zrotation Yrotation Xrotation
			JOINT Spine1
			{
				OFFSET 0.000000 2.156116 -0.508617
				CHANNELS 3 Zrotation Yrotation Xrotation
				JOINT Neck
				{
					OFFSET 0 0 0
					CHANNELS 3 Zrotation Yrotation Xrotation
					JOINT Neck1
					{
						OFFSET 0.000000 1.781871 0.216275
						CHANNELS 3 Zrotation Yrotation Xrotation
						JOINT Head
						{
							OFFSET 0.000000 1.015906 -0.026879
							CHANNELS 3 Zrotation Yrotation Xrotation
							End Site
							{
								OFFSET 0.000000 0.339197 0.983632
							}
						}
					}
				}
				JOINT LeftShoulder
				{
					OFFSET 0 0 0
					CHANNELS 3 Zrotation Yrotation Xrotation
					JOINT LeftArm
					{
						OFFSET 1.565866 1.184736 0.289545
						CHANNELS 3 Zrotation Yrotation Xrotation
						JOINT LeftForeArm
						{
							OFFSET 1.930940 -0.176441 -0.109244
							CHANNELS 3 Zrotation Yrotation Xrotation
							JOINT LeftHand
							{
								OFFSET 2.263412 -0.058986 0.122483
								CHANNELS 3 Zrotation Yrotation Xrotation
								JOINT LeftFingerBase
								{
									OFFSET 0 0 0
									CHANNELS 3 Zrotation Yrotation Xrotation
									JOINT LeftHandIndex1
									{
										OFFSET 0.944218 0.017559 0.358417
										CHANNELS 3 Zrotation Yrotation Xrotation
										End Site
										{
											OFFSET 0.237801 -0.022714 0.035813
										}
									}
								}
								JOINT LThumb
								{
									OFFSET 0 0 0
									CHANNELS 3 Zrotation Yrotation Xrotation
									End Site
									{
										OFFSET 0.234930 -0.092931 0.244282
									}
								}
							}
						}
					}
				}
				JOINT RightShoulder
				{
					OFFSET 0 0 0
					CHANNELS 3 Zrotation Yrotation Xrotation
					JOINT RightArm
					{
						OFFSET -1.565866 1.184736 0.289545
						CHANNELS 3 Zrotation Yrotation Xrotation
						JOINT RightForeArm
						{
							OFFSET -1.930940 -0.176441 -0.109244
							CHANNELS 3 Zrotation Yrotation Xrotation
							JOINT RightHand
							{
								OFFSET -2.263412 -0.058986 0.122483
								CHANNELS 3 Zrotation Yrotation Xrotation
								JOINT RightFingerBase
								{
									OFFSET 0 0 0
									CHANNELS 3 Zrotation Yrotation Xrotation
									JOINT RightHandIndex1
									{
										OFFSET -0.944218 0.017559 0.358417
										CHANNELS 3 Zrotation Yrotation Xrotation
										End Site
										{
											OFFSET -0.237801 -0.022714 0.035813
										}
									}
								}
								JOINT RThumb
								{
									OFFSET 0 0 0
									CHANNELS 3 Zrotation Yrotation Xrotation
									End Site
									{
										OFFSET -0.234930 -0.092931 0.244282
									}
								}
							}
						}
					}
				}
			}
		}
	}
}
MOTION
Frames: 4
Frame Time: .0083333
3.590053 7.941421 0.035263 -198.102997 76.008598 -190.723999 0.000000 0.000000 0.000000 -2.982500 -18.792101 -23.579901 11.585000 18.209700 64.667297 1.581300 9.140900 -28.595699 1.317500 -7.270000 -20.517700 0.000000 0.000000 0.000000 -1.084700 13.898500 -26.992500 -5.232700 -13.641100 41.818401 -0.875400 -12.827000 -26.551399 -2.400700 9.655000 -27.866600 -1.438100 -1.927600 22.899500 0.268000 -2.037900 8.227200 1.602100 -0.709900 -3.687300 8.309100 4.325800 2.450700 -11.078000 5.248100 -18.249300 -4.381600 2.244200 -7.455600 -0.000000 0.000000 0.000000 -63.287498 11.976900 27.619900 120.186501 -56.259998 -85.814003 -0.000000 0.000000 -19.710800 33.868999 10.187900 6.770300 -7.125000 0.000000 -0.000000 6.165700 42.111301 -0.441300 -0.000000 0.000000 0.000000 54.491402 -26.801100 44.805901 -83.542198 59.841801 -54.410301 0.000000 -0.000000 -24.141800 -14.197700 8.049500 -2.028900 7.125000 -0.000000 -0.000000 9.162800 -21.718800 5.186800
3.664474 7.899263 0.046316 -188.824005 76.808800 -180.979004 0.000000 0.000000 0.000000 0.468800 -19.389999 -26.083500 12.025600 18.401400 66.069801 1.552400 8.595100 -28.019501 1.572400 -7.911900 -22.446800 0.000000 0.000000 0.000000 1.671200 14.155600 -27.930799 -5.538000 -13.965200 43.098000 -1.034500 -12.288100 -27.243000 -2.342500 9.545800 -27.518101 0.639800 -2.072000 23.166401 1.072800 -1.744300 8.005600 1.220700 -0.557300 -4.118800 8.689600 4.316500 2.950900 -11.622500 5.215200 -18.753901 -4.624700 2.234100 -7.661400 -0.000000 -0.000000 0.000000 -65.259201 11.548900 27.660999 116.464302 -57.180801 -82.701797 -0.000000 0.000000 -21.466101 34.131001 10.839000 7.264200 -7.125000 0.000000 -0.000000 6.409700 42.913300 -0.331500 -0.000000 -0.000000 0.000000 56.569702 -25.666401 44.770500 -82.652298 59.794998 -53.641102 0.000000 -0.000000 -23.645000 -15.406500 8.292300 -2.275900 7.125000 -0.000000 -0.000000 8.281900 -21.418100 4.734300
3.755895 7.851579 0.048789 -189.093002 77.073898 -181.171005 0.000000 0.000000 0.000000 0.852400 -20.240000 -27.061399 12.360200 18.538799 67.125900 1.632700 7.694500 -27.974701 1.714100 -8.243200 -23.455299 0.000000 0.000000 0.000000 1.917500 13.235900 -28.511400 -5.929000 -14.359200 44.696201 -1.265300 -11.005200 -27.812401 -2.467100 9.777900 -28.260500 0.616500 -2.077300 23.522800 1.322900 -1.702200 8.224800 1.498000 -0.526800 -4.048800 9.030200 4.400000 2.443000 -12.376700 5.285100 -19.055401 -4.907600 2.238200 -7.626500 -0.000000 0.000000 0.000000 -67.511703 10.502000 27.553699 112.983200 -57.906799 -79.764099 -0.000000 0.000000 -24.470200 36.254299 13.895600 9.988300 -7.125000 0.000000 -0.000000 8.458300 46.857498 0.390400 -0.000000 0.000000 0.000000 58.480400 -23.046801 44.228001 -79.652702 59.591499 -51.051201 0.000000 -0.000000 -23.139400 -16.326700 8.801400 -2.566300 7.125000 -0.000000 -0.000000 7.606800 -20.849899 4.439900
3.848421 7.794737 0.048105 -187.472000 77.543800 -179.498993 0.000000 0.000000 0.000000 1.807699 -21.076200 -28.287399 12.753500 18.691401 68.358299 1.745800 6.723500 -28.144600 1.817200 -8.474500 -24.164700 0.000000 0.000000 0.000000 2.579700 12.602300 -29.067600 -6.363300 -14.771400 46.423000 -1.471000 -9.759000 -28.285999 -2.661100 10.125100 -29.382601 0.814700 -2.089900 23.750200 1.709100 -1.630800 8.300400 1.787900 -0.488700 -4.074200 9.670700 4.618000 2.698900 -13.417600 5.527300 -19.692400 -5.327100 2.349700 -7.773000 0.000000 0.000000 0.000000 -69.907799 9.831200 27.093800 109.897598 -58.449902 -77.142097 -0.000000 0.000000 -27.886400 36.648800 15.156800 11.008000 -7.125000 0.000000 -0.000000 8.869500 48.433601 0.756700 0.000000 0.000000 0.000000 60.152100 -19.955700 43.993698 -75.342796 59.172501 -47.341702 0.000000 -0.000000 -22.461599 -16.860800 9.167600 -2.764500 7.125000 -0.000000 -0.000000 7.217500 -20.443100 4.275600
